<?xml version="1.0" encoding="utf-8"?>
<!-- Generator: Adobe Illustrator 25.0.1, SVG Export Plug-In . SVG Version: 6.00 Build 0)  -->
<svg version="1.1" id="Capa_1" xmlns="http://www.w3.org/2000/svg" xmlns:xlink="http://www.w3.org/1999/xlink" x="0px" y="0px"
	 viewBox="0 0 60 60" style="enable-background:new 0 0 60 60;" xml:space="preserve">
<style type="text/css">
	.st0{fill:#666666;}
</style>
<g>
	<g>
		<path class="st0" d="M34.2,9.4v41.2c0,2.3-1.9,4.2-4.2,4.2s-4.2-1.9-4.2-4.2V9.4c0-2.3,1.9-4.2,4.2-4.2
			C32.3,5.4,34.2,7.2,34.2,9.4z"/>
	</g>
	<g>
		<path class="st0" d="M47.9,23.1c0,1.1-0.5,2.2-1.2,2.9c-1.5,1.5-4.2,1.5-5.9,0L30,15.2L19.2,26c-1.5,1.5-4.2,1.5-5.9,0
			c-1.5-1.5-1.5-4.2,0-5.9L27.1,6.4c1.5-1.5,4.2-1.5,5.9,0l13.7,13.7C47.4,21.1,47.9,22.2,47.9,23.1z"/>
	</g>
</g>
</svg>
