<?xml version="1.0" encoding="utf-8"?>
<!-- Generator: Adobe Illustrator 25.0.1, SVG Export Plug-In . SVG Version: 6.00 Build 0)  -->
<svg version="1.1" xmlns="http://www.w3.org/2000/svg" xmlns:xlink="http://www.w3.org/1999/xlink" x="0px" y="0px"
	 viewBox="0 0 750 500" style="enable-background:new 0 0 750 500;" xml:space="preserve">
<style type="text/css">
	.st0{fill:url(#SVGID_1_);}
	.st1{clip-path:url(#SVGID_3_);}
	.st2{opacity:0.7;fill:url(#SVGID_4_);}
	.st3{opacity:0.7;}
	.st4{fill:url(#SVGID_5_);}
	.st5{fill:url(#SVGID_6_);}
	.st6{fill:url(#SVGID_7_);}
	.st7{fill:url(#SVGID_8_);}
	.st8{fill:url(#SVGID_9_);}
	.st9{fill:url(#SVGID_10_);}
	.st10{clip-path:url(#SVGID_12_);}
	.st11{fill:url(#SVGID_13_);}
	.st12{fill:url(#SVGID_14_);}
	.st13{clip-path:url(#SVGID_16_);}
	.st14{fill:url(#SVGID_17_);}
	.st15{fill:url(#SVGID_18_);}
	.st16{fill:url(#SVGID_19_);}
	.st17{opacity:0.7;fill:url(#SVGID_20_);}
</style>
<g id="BACKGROUND">
	<linearGradient id="SVGID_1_" gradientUnits="userSpaceOnUse" x1="152.5841" y1="22.1886" x2="709.0565" y2="592.1603">
		<stop  offset="0" style="stop-color:#FFFFFF"/>
		<stop  offset="1" style="stop-color:#E4E4E4"/>
	</linearGradient>
	<rect class="st0" width="750" height="500"/>
</g>
<g id="OBJECTS">
	<g>
		<defs>
			<rect id="SVGID_2_" width="750" height="500"/>
		</defs>
		<clipPath id="SVGID_3_">
			<use xlink:href="#SVGID_2_"  style="overflow:visible;"/>
		</clipPath>
		<g class="st1">
			<linearGradient id="SVGID_4_" gradientUnits="userSpaceOnUse" x1="710.8248" y1="440.6514" x2="577.3317" y2="65.6699">
				<stop  offset="0" style="stop-color:#FFFFFF"/>
				<stop  offset="1" style="stop-color:#E4E4E4"/>
			</linearGradient>
			<path class="st2" d="M636-45c0,0,155,118,146,423l-32,53L621,271L483,88L407,0l27-38l63-13L636-45z"/>
			<g class="st3">
				
					<image style="overflow:visible;opacity:0.3;" width="2563" height="2544" xlink:href="B3FCC1C3.png"  transform="matrix(0.24 0 0 0.24 205.88 -78.425)">
				</image>
				<g>
					<linearGradient id="SVGID_5_" gradientUnits="userSpaceOnUse" x1="423.6577" y1="40.4953" x2="698.1869" y2="462.8474">
						<stop  offset="0" style="stop-color:#FFFFFF"/>
						<stop  offset="1" style="stop-color:#E4E4E4"/>
					</linearGradient>
					<path class="st4" d="M489-87c0,0,245,158,281,499l-20,69L611.7,379.7L382.2,161.3L197,0l15-56C212-56,459-91,489-87z"/>
				</g>
			</g>
			<g class="st3">
				
					<image style="overflow:visible;opacity:0.3;" width="3088" height="995" xlink:href="B3FCC1C1.png"  transform="matrix(0.24 0 0 0.24 -61 341.335)">
				</image>
				<g>
					<linearGradient id="SVGID_6_" gradientUnits="userSpaceOnUse" x1="250.6829" y1="484.009" x2="586.666" y2="643.0011">
						<stop  offset="0" style="stop-color:#FFFFFF"/>
						<stop  offset="1" style="stop-color:#E4E4E4"/>
					</linearGradient>
					<path class="st5" d="M-70,514c0,0,332-112,561,15l138-29c0,0-282-239-699-146V514z"/>
				</g>
			</g>
			<g class="st3">
				<linearGradient id="SVGID_7_" gradientUnits="userSpaceOnUse" x1="112.6603" y1="75.7365" x2="673.632" y2="585.7109">
					<stop  offset="0" style="stop-color:#FFFFFF"/>
					<stop  offset="1" style="stop-color:#E4E4E4"/>
				</linearGradient>
				<path class="st6" d="M454.8,348.8c-163.3-78.6-353.7-99-530-57C-85.6,211.5-96,131.3-106.4,51.1c-1.8-14.1-3.5-29.2,3.4-41.7
					C-97-1.4-85.8-8-75.7-15.2C-55.5-29.6-38.4-48-18.4-62.5c67.7-48.9,160-46.9,241.3-27.3c52.2,12.6,102.8,31.6,151.2,55
					c198.1,96.1,349.2,288.3,393.2,504c2.1,10.2,3.9,20.6,2.8,30.9c-2,18.1-1.7,22.8-12,37.7c-5.7,8.2-11.8,16.7-20.8,20.8
					c-6,2.7-12.8,3.3-19.3,3.8c-21.4,1.6-43.3,4.5-64.8,4.5c18-26,18.9-39.7-0.4-65.3c-16.9-22.4-36.5-42.9-57.5-61.6
					C553.3,402.9,505.2,373,454.8,348.8z"/>
			</g>
			<g class="st3">
				
					<image style="overflow:visible;opacity:0.3;" width="3480" height="1385" xlink:href="B3FCC1C7.png"  transform="matrix(0.24 0 0 0.24 -100.84 268.855)">
				</image>
				<g>
					<linearGradient id="SVGID_8_" gradientUnits="userSpaceOnUse" x1="528.3344" y1="526.9894" x2="97.8557" y2="342.4984">
						<stop  offset="0" style="stop-color:#FFFFFF"/>
						<stop  offset="1" style="stop-color:#E4E4E4"/>
					</linearGradient>
					<path class="st7" d="M48.3,261.7C250,250,382.5,303.2,469.1,345.3c86.6,42.1,164.6,105.2,214,187.9
						c-18.8,7.9-38.6,13.7-58.7,17.1c-46.9-50.5-108.5-86-173.7-108.6c-65.2-22.6-134-32.8-202.8-37.9
						c-96.9-7.2-197.9-3.6-285.5,38.5c-23.9-43.6-47.8-87.2-71.7-130.8c-6.4-11.8,57.4-34.6,64.5-36.3
						C-14.2,267.9,17,263.5,48.3,261.7z"/>
				</g>
			</g>
			<g class="st3">
				
					<image style="overflow:visible;opacity:0.3;" width="1473" height="2236" xlink:href="B3FCC1C0.png"  transform="matrix(0.24 0 0 0.24 456.92 -50.105)">
				</image>
				<g>
					<linearGradient id="SVGID_9_" gradientUnits="userSpaceOnUse" x1="703.7159" y1="273.3974" x2="495.716" y2="26.3973">
						<stop  offset="0" style="stop-color:#FFFFFF"/>
						<stop  offset="1" style="stop-color:#E4E4E4"/>
					</linearGradient>
					<path class="st8" d="M483-59c0,0,264.9,192.8,276.4,494.4c0,0-31.4-282.4-311.4-451.4L483-59z"/>
				</g>
			</g>
			<g class="st3">
				
					<image style="overflow:visible;opacity:0.3;" width="2634" height="588" xlink:href="B3FCC1CE.png"  transform="matrix(0.24 0 0 0.24 -66.04 445.975)">
				</image>
				<g>
					<linearGradient id="SVGID_10_" gradientUnits="userSpaceOnUse" x1="326.3476" y1="472.848" x2="-12.6525" y2="526.8478">
						<stop  offset="0" style="stop-color:#FFFFFF"/>
						<stop  offset="1" style="stop-color:#E4E4E4"/>
					</linearGradient>
					<path class="st9" d="M-75,481c0,0,339-113,590,24l-25,7c0,0-283-98-490,24L-75,481z"/>
				</g>
			</g>
		</g>
	</g>
	<g>
		<defs>
			<rect id="SVGID_11_" width="750" height="500"/>
		</defs>
		<clipPath id="SVGID_12_">
			<use xlink:href="#SVGID_11_"  style="overflow:visible;"/>
		</clipPath>
		<g class="st10">
			<g class="st3">
				
					<image style="overflow:visible;opacity:0.3;" width="3787" height="2682" xlink:href="B3FCC1CF.png"  transform="matrix(0.24 0 0 0.24 -118.12 -36.425)">
				</image>
				<g>
					<linearGradient id="SVGID_13_" gradientUnits="userSpaceOnUse" x1="561.0791" y1="540.6092" x2="138.1003" y2="108.6307">
						<stop  offset="0" style="stop-color:#FFFFFF"/>
						<stop  offset="1" style="stop-color:#E4E4E4"/>
					</linearGradient>
					<path class="st11" d="M555.7,166.3C466.1,70.7,349.2,1,222.5-32.3C178.8-43.8,132.4-51,88.8-39.4c-22.4,6-43.2,16.7-63.9,27.4
						c-36,18.6-72.8,37.8-100.3,67.6C155.5,33.5,401.6,106.7,561,275C404.1,137.9,188.1,79.3-20.2,80.7c-9.9,0.1-20.2,0.4-29.1,4.9
						c-7.7,3.9-13.6,10.7-18.9,17.5c-17.7,22.8-49.6,76.5-58.8,103.9c29.5-22.1,718-85,838.1,347.9c9.4,0.4,19.2,1.6,28.5,1
						c0.9-22.1-29-129.8-39.5-157.6c-20.8-55-48.5-107.4-82.3-155.5C599,215.9,578.2,190.2,555.7,166.3z"/>
				</g>
			</g>
			<g class="st3">
				
					<image style="overflow:visible;opacity:0.3;" width="3409" height="897" xlink:href="B3FCC1C2.png"  transform="matrix(0.24 0 0 0.24 -238.84 129.175)">
				</image>
				<g>
					<linearGradient id="SVGID_14_" gradientUnits="userSpaceOnUse" x1="388.984" y1="317.1989" x2="-72.9927" y2="185.2054">
						<stop  offset="0" style="stop-color:#FFFFFF"/>
						<stop  offset="1" style="stop-color:#E4E4E4"/>
					</linearGradient>
					<path class="st12" d="M528.1,293.4C298,143-153.4,187.9-247.6,256.9c4.1-3,4.8-42.4,6-49.1c2.8-16,5.8-32.5,10.9-48
						c7.3-22.4,17.3-27.3,39.9-28.9C-120.7,125.8,232,67,528.1,293.4z"/>
				</g>
			</g>
		</g>
	</g>
	<g>
		<defs>
			<rect id="SVGID_15_" width="750" height="500"/>
		</defs>
		<clipPath id="SVGID_16_">
			<use xlink:href="#SVGID_15_"  style="overflow:visible;"/>
		</clipPath>
		<g class="st13">
			<g class="st3">
				
					<image style="overflow:visible;opacity:0.3;" width="3163" height="1089" xlink:href="B3FCC1C5.png"  transform="matrix(0.24 0 0 0.24 -51.4 301.495)">
				</image>
				<g>
					
						<linearGradient id="SVGID_17_" gradientUnits="userSpaceOnUse" x1="212.2249" y1="307.5357" x2="422.3866" y2="630.8611" gradientTransform="matrix(0.9997 -2.302500e-02 2.302500e-02 0.9997 -9.2275 6.9784)">
						<stop  offset="0" style="stop-color:#FFFFFF"/>
						<stop  offset="1" style="stop-color:#E4E4E4"/>
					</linearGradient>
					<path class="st14" d="M656.6,511.8c0,0-253.9-297.2-716.8-199.5L-55,373C-55,373,331.8,220.2,656.6,511.8z"/>
				</g>
			</g>
			<g class="st3">
				
					<image style="overflow:visible;opacity:0.3;" width="2163" height="487" xlink:href="B3FCC1C6.png"  transform="matrix(0.24 0 0 0.24 -61 327.175)">
				</image>
				<g>
					<linearGradient id="SVGID_18_" gradientUnits="userSpaceOnUse" x1="-12.9753" y1="349.1834" x2="332.3581" y2="380.5168">
						<stop  offset="0" style="stop-color:#FFFFFF"/>
						<stop  offset="1" style="stop-color:#E4E4E4"/>
					</linearGradient>
					<path class="st15" d="M-70,344c0,0,242-70.7,477,22.6c0,0-127-47.6-305.6-25.9C43,347.9-14.2,362.5-60,393L-70,344z"/>
				</g>
			</g>
			<g class="st3">
				
					<image style="overflow:visible;opacity:0.3;" width="3114" height="2230" xlink:href="3880130.png"  transform="matrix(0.24 0 0 0.24 8.84 -36.185)">
				</image>
				<g>
					<linearGradient id="SVGID_19_" gradientUnits="userSpaceOnUse" x1="73.8686" y1="172.1811" x2="611.3817" y2="220.9516">
						<stop  offset="0" style="stop-color:#FFFFFF"/>
						<stop  offset="1" style="stop-color:#E4E4E4"/>
					</linearGradient>
					<path class="st16" d="M89-45c0,0,483,54,616,493C705,448,560-13,0,0L89-45z"/>
				</g>
			</g>
			<linearGradient id="SVGID_20_" gradientUnits="userSpaceOnUse" x1="-169.2151" y1="186.0005" x2="301.074" y2="228.6715">
				<stop  offset="0" style="stop-color:#FFFFFF"/>
				<stop  offset="1" style="stop-color:#E4E4E4"/>
			</linearGradient>
			<path class="st17" d="M-248,191.4c0,0,343.8-101.8,649,37.4c0,0-309.1-124.7-620.3,6.2L-248,191.4z"/>
		</g>
	</g>
</g>
</svg>
