<?xml version="1.0" encoding="utf-8"?>
<!-- Generator: Adobe Illustrator 25.0.1, SVG Export Plug-In . SVG Version: 6.00 Build 0)  -->
<svg version="1.1" id="Capa_1" xmlns="http://www.w3.org/2000/svg" xmlns:xlink="http://www.w3.org/1999/xlink" x="0px" y="0px"
	 viewBox="0 0 356.5 356.5" style="enable-background:new 0 0 356.5 356.5;" xml:space="preserve">
<style type="text/css">
	.st0{fill:#F0F0F0;}
	.st1{fill:none;stroke:#F99899;stroke-width:0;stroke-miterlimit:10;}
	.st2{fill:none;stroke:#83A2CC;stroke-width:0;stroke-miterlimit:10;}
	.st3{fill:none;stroke:#FFEDAB;stroke-width:0;stroke-miterlimit:10;}
	.st4{fill:none;stroke:#803F69;stroke-width:0;stroke-miterlimit:10;}
	.st5{fill:none;stroke:#CACACA;stroke-width:0;stroke-miterlimit:10;}
	.st6{fill:#F43536;}
	.st7{fill:#0A499A;}
	.st8{fill:#FCDC5B;}
	.st9{fill:#969697;}
</style>
<g>
	<circle class="st0" cx="178.25" cy="178.25" r="172.27"/>
	<g>
		<path class="st1" d="M231.98,113.53c5.93,4.71,10.35,9.53,14.61,14.61c7.12,8.5,13.3,19.05,16.78,29.9c0.2,0.61,0.9,0.95,1.3,1.38
			c2.8,3.02,5.62,6.03,8.46,9.01c0.87,0.91,1.89,2.25,2.96,3.27c0.08,0.08,0.21,0.04,0.24-0.06c0.12-0.38,0.14-0.78,0.05-1.21
			c-3.02-15.41-9.81-31.29-19.58-43.51c-17.38-21.73-41.19-35.35-69.04-38.17c-6.43-0.65-13.12-0.47-19.55,0
			c-2.63,0.19-5.62,0.64-8.98,1.32c-5.47,1.11-10.43,2.33-15.47,4.22c-5.97,2.24-11.72,4.97-17.24,8.19
			c-2.11,1.23-4.08,2.64-5.92,4.23c-0.06,0.05-0.12,0.11-0.16,0.18c-0.08,0.12-0.06,0.13,0.05,0.04c3.44-2.78,7.7-4.41,11.7-6.22
			c9.49-4.29,19.53-7.07,29.93-7.9c4.27-0.34,7.2-0.49,8.8-0.45c5.68,0.13,9.29,0.29,10.83,0.47c8.95,1.05,18.36,3.14,26.64,6.74
			C217.06,103.32,224.45,107.54,231.98,113.53"/>
		<path class="st2" d="M109.06,120.47c-6.56,5.99-12.67,12.92-17.5,21.06c-5.56,9.37-9.45,19.22-11.66,29.53
			c-0.04,0.17-0.04,0.31-0.02,0.42c0.02,0.09,0.14,0.13,0.21,0.06c3.17-3.35,6.31-6.7,9.44-10.05c0.94-1,2.24-2.57,2.58-3.59
			c3.64-10.88,9.99-20.33,17.42-29.12c3.19-3.77,6.76-7.25,10.73-10.45c14.49-11.67,31.56-18.35,50.13-19.7
			c3.51-0.26,6.08-0.34,7.7-0.24c3.97,0.23,8.01,0.4,11.95,0.92c1.51,0.2,3.21,0.66,4.72,0.63c0.01,0,0.01,0,0.01-0.01
			c0,0,0-0.01-0.01-0.01c-1.64-0.28-3.41-0.81-4.83-1.08c-3.21-0.63-5.47-1-6.77-1.12c-4.08-0.38-8.34-0.87-12.29-0.88
			C148.12,96.8,125.91,105.1,109.06,120.47"/>
		<path class="st3" d="M185.87,140.5c1.71,1.93,3.19,3.39,5.17,5.71c1.01,1.2,2.41,2.5,4.18,3.92c0.07,0.05,0.16,0.08,0.24,0.05
			c1.11-0.28,2.3-0.68,3.3-0.89c13.33-2.85,26.77-5.3,40.08-8.12c1.4-0.3,2.64-0.46,3.69-0.48c0.09,0,0.18,0.02,0.26,0.07
			c1.19,0.72,2.37,2.35,3.24,3.45c0.66,0.84,1.56,1.57,2.25,2.49c0.91,1.19,1.41,1.84,1.51,1.95c1.4,1.56,2.92,3.1,4.57,4.61
			c0.2,0.18,0.51-0.03,0.41-0.28c-1.33-3.41-2.93-6.23-5.09-9.82c-1.72-2.86-3.72-5.36-5.82-7.91c-0.67-0.82-1.33-1.89-2.09-2.78
			c-1.97-2.31-4.07-4.49-6.32-6.54c-4.17-3.81-8.58-7.48-13.41-10.47c-5.59-3.45-11.73-6.09-17.91-8.29
			c-5.47-1.95-11.51-2.96-17.26-3.68c-5.52-0.7-11.24-0.66-16.78-0.34c-4.96,0.28-10.21,1.56-14.9,2.66
			c-1.9,0.45-3.8,1.19-5.72,1.81c-5,1.61-9.77,3.97-14.37,6.47c-1.63,0.89-3.17,1.83-4.61,2.82c-11.87,8.17-21.92,19.08-28.49,31.88
			c-1,1.95-2.37,5.3-3.83,7.85c-0.02,0.04-0.01,0.09,0.02,0.12c0.04,0.03,0.09,0.03,0.12,0c2.21-2,4.29-4.58,6.12-6.45
			c2.68-2.74,5.13-5.43,7.34-8.07c0.96-1.15,2.07-1.76,3.6-1.42c3.9,0.84,7.81,1.64,11.73,2.39c9.69,1.86,17.83,3.77,26.77,5.46
			c2.25,0.43,4.64,1.18,6.91,1.3c0.09,0.01,0.18-0.02,0.25-0.06c0.77-0.47,1.46-1.04,2.06-1.72c4.75-5.36,9.85-10.36,14.62-15.7
			c0.06-0.06,0.15-0.08,0.23-0.05c0.35,0.17,0.66,0.41,0.94,0.73C181.11,135.64,183.63,137.97,185.87,140.5"/>
		<path class="st1" d="M161.02,154.33c-1.77-0.49-3.16-0.83-4.16-1.03c-13.9-2.76-27.78-5.69-41.7-8.32"/>
		<path class="st2" d="M115.16,144.98c-0.81-0.2-1.7-0.36-2.2,0.23c-0.63,0.74-1.28,1.47-1.94,2.18
			c-12.29,13.18-24.56,26.39-36.8,39.61c-2.33,2.51-5.21,5.5-7.77,8.3c-0.65,0.71-1.14,0.83-2.07,0.83c-1.78,0-3.58,0.01-5.41,0.02
			c-0.27,0-0.41,0.14-0.41,0.41v2.63c0,0.11,0.05,0.16,0.16,0.16c21.7,0.1,38.3-0.02,65.14,0.08c0.77,0,1.08-0.16,1.57-0.69
			c17.62-18.64,34.99-37.56,52.44-56.36c0.07-0.07,0.14-0.07,0.2,0c1.35,1.38,2.3,2.37,2.85,2.97c7.79,8.35,24.14,25.94,49.07,52.75
			c0.88,0.94,1.04,1.29,2.29,1.29c21.68,0,43.36,0.01,65.03,0c0.12,0,0.21-0.1,0.21-0.21l-0.09-3c0-0.1-0.05-0.15-0.15-0.15
			c-2,0.05-3.99,0.06-5.99,0.02c-0.69-0.01-1.14-0.13-1.34-0.35c-15.75-16.95-31.5-33.9-47.25-50.85c-0.18-0.2-0.51-0.27-0.99-0.21"
			/>
		<path class="st1" d="M241.73,144.66c-0.45,0.04-0.93,0.05-1.38,0.15c-14.58,3.29-29.26,5.92-43.86,9.11
			c-0.5,0.11-1.03,0.29-1.6,0.55"/>
		<path class="st2" d="M194.89,154.47l-16.52-17.82c-0.17-0.18-0.45-0.18-0.62,0c-5,5.37-10,10.72-15,16.07
			c-0.72,0.77-1.29,1.31-1.73,1.62"/>
		<path class="st4" d="M194.89,154.47l19.18,20.37c0.06,0.07,0.17,0.07,0.23,0c6.48-7.03,12.97-14.04,19.49-21.03
			c0.91-0.98,2.31-2.05,2.62-2.71c0.06-0.12,0.11-0.22,0.12-0.23c0.47-0.43,0.73-0.9,1.26-1.26c1.05-0.71,1.19-1.52,1.87-2.34
			c0.71-0.85,1.38-1.74,2.06-2.61 M115.16,144.98c-0.17,0.48-0.01,0.99,0.48,1.53c8.56,9.46,17.25,18.87,26.11,28.05
			c0.2,0.21,0.53,0.2,0.72-0.01c5.91-6.47,11.8-12.84,17.67-19.1c0.38-0.41,0.67-0.78,0.87-1.12"/>
		<path class="st5" d="M171.6,179.43c-1.77,1.26-4.33,4.42-4.16,6.74c0.01,0.11,0.07,0.17,0.18,0.17h8.26
			c0.09,0,0.14-0.05,0.14-0.14l-0.02-8.11c0-0.32-0.16-0.45-0.47-0.38C174.12,177.99,172.81,178.56,171.6,179.43 M187.01,186.38
			c0.86,0.03,2.21-0.11,1.62-1.42c-1.4-3.1-3.29-5.86-6.78-6.92c-0.4-0.12-0.96-0.38-1.45-0.29c-0.28,0.05-0.42,0.22-0.42,0.51
			l0.07,7.91c0,0.1,0.05,0.15,0.15,0.15C182.48,186.34,184.75,186.29,187.01,186.38 M189.07,190.52c0-0.06-0.05-0.11-0.11-0.11
			l-8.78-0.02c-0.06,0-0.11,0.05-0.11,0.11l-0.02,8.72c0,0.06,0.05,0.11,0.11,0.11l8.78,0.02c0.06,0,0.11-0.05,0.11-0.11
			L189.07,190.52 M175.99,190.69c0-0.17-0.14-0.31-0.31-0.31l-8.38,0.03c-0.17,0-0.31,0.14-0.31,0.31l0.03,8.37
			c0,0.17,0.14,0.31,0.31,0.31l8.38-0.03c0.17,0,0.31-0.14,0.31-0.31L175.99,190.69"/>
		<path class="st2" d="M114.23,207.17c-0.99-0.49-2.72-0.95-3.7-0.25c-2.8,1.98-2.47,9.58,2.36,8.7c0.68-0.12,1.13-0.58,1.6-1.05
			c0.11-0.11,0.3-0.05,0.34,0.1l0.16,0.83c0.02,0.11,0.09,0.17,0.21,0.17l1.6-0.03c0.12,0,0.19-0.06,0.21-0.18
			c0.05-0.28,0.07-0.63,0.08-1.05c0.04-3.64,0.02-7.26-0.04-10.88c0-0.17-0.14-0.29-0.3-0.29l-1.72,0.04
			c-0.19,0-0.35,0.15-0.38,0.34c-0.16,1.1-0.17,2.2-0.05,3.31C114.62,207.22,114.5,207.3,114.23,207.17 M72.45,204.89
			c0.22-0.61-0.13-1.3-0.78-1.53c-0.65-0.23-1.36,0.07-1.58,0.68c-0.22,0.61,0.13,1.3,0.78,1.53
			C71.52,205.81,72.23,205.5,72.45,204.89 M86.64,204.1c0-0.41-0.33-0.74-0.74-0.74l-0.86,0c-0.41,0-0.74,0.33-0.74,0.74l0,0.65
			c0,0.41,0.33,0.74,0.74,0.74l0.86,0c0.41,0,0.74-0.33,0.74-0.74L86.64,204.1 M63.9,212.75c-0.01,0.12-0.17,0.14-0.21,0.04
			c-1.13-2.69-1.86-5.53-2.79-8.31c-0.11-0.33-0.41-0.55-0.76-0.55h-1.3c-0.28,0-0.48,0.28-0.39,0.55l3.63,10.67
			c0.12,0.36,0.37,0.53,0.75,0.5l1.95-0.16c0.09-0.01,0.15-0.05,0.18-0.14c0.92-2.57,2.08-6.04,3.5-10.4
			c0.12-0.35,0.12-0.66,0.02-0.92c-0.04-0.09-0.13-0.15-0.23-0.14l-1.5,0.17c-0.23,0.02-0.43,0.18-0.51,0.41
			C65.39,207.01,64.1,210.06,63.9,212.75 M90.57,214.93c1.18,0.99,4.06,0.76,5.48,0.46c0.58-0.12,0.49-1.23,0.45-1.6
			c-0.01-0.11-0.07-0.16-0.18-0.15c-1.83,0.17-4.6,1-4.98-1.69c-0.02-0.13,0.08-0.25,0.22-0.25h5.22c0.12,0,0.18-0.06,0.18-0.18
			c0.01-0.81-0.1-1.62-0.31-2.4c-0.74-2.72-4.6-3.5-6.51-1.6c-0.55,0.55-0.94,1.28-1.14,2.18C88.51,211.9,89.03,213.63,90.57,214.93
			 M125.08,214.67l0.16,0.73c0.02,0.11,0.09,0.16,0.2,0.16l1.45,0c0.12,0,0.18-0.06,0.19-0.18c0.08-2.05,0.05-4.09-0.09-6.13
			c-0.25-3.7-3.99-2.69-6.39-2.24c-0.59,0.11-0.35,1.02-0.27,1.38c0.05,0.23,0.26,0.38,0.5,0.36c1.19-0.1,4.16-1.1,3.54,1.3
			c-0.02,0.08-0.1,0.14-0.18,0.13c-1.97-0.2-4.88,0-4.92,2.53c-0.04,3.23,3.57,3.7,5.5,1.86
			C124.87,214.47,125.05,214.53,125.08,214.67 M78.33,212.86c-0.35-0.73-0.38-1.57-0.6-2.23c-0.4-1.17-0.85-2.41-1.34-3.72
			c-0.09-0.23-0.32-0.38-0.57-0.35l-1.96,0.2c-0.09,0.01-0.11,0.05-0.05,0.12c0.09,0.11,0.16,0.23,0.21,0.35
			c0.93,2.28,1.81,4.58,2.64,6.9c0.17,0.46,0.36,0.91,0.58,1.36c0.05,0.09,0.12,0.14,0.23,0.14l2.17-0.03c0.09,0,0.17-0.06,0.2-0.15
			c1.23-3.28,2.15-5.79,2.77-7.52c0.1-0.28,0.18-0.65,0.25-1.11c0.01-0.1-0.03-0.16-0.13-0.18c-0.45-0.09-2.12-0.24-2.31,0.32
			c-0.65,1.96-1.31,3.93-1.96,5.9C78.42,212.9,78.35,212.91,78.33,212.86 M86.66,206.83c0-0.13-0.1-0.23-0.23-0.23l-1.92,0
			c-0.12,0-0.23,0.1-0.23,0.23l-0.01,8.54c0,0.13,0.1,0.23,0.23,0.23l1.92,0c0.12,0,0.23-0.1,0.23-0.23L86.66,206.83 M101.16,207.59
			c-0.41-0.82-1.1-1.13-2.06-0.92c-0.08,0.02-0.13,0.07-0.15,0.15c-0.08,0.35-0.12,0.76-0.12,1.23c-0.02,2.97,0,5.43,0.06,7.38
			c0,0.09,0.05,0.14,0.15,0.14l2.06-0.03c0.1,0,0.15-0.05,0.15-0.15c-0.06-1.52-0.08-3.04-0.07-4.57c0.01-1.39,0.67-2.15,1.98-2.28
			c0.28-0.03,0.51,0.01,0.67,0.11c1.07,0.67,0.75,5.56,0.75,6.81c0,0.1,0.08,0.18,0.17,0.17l1.96-0.03c0.08,0,0.13-0.04,0.14-0.13
			c0.24-2.71,0.2-4.89-0.11-6.54c-0.54-2.82-3.61-3.04-5.37-1.32C101.28,207.71,101.21,207.7,101.16,207.59 M129.49,210.28
			c0.83,1.47,3.04,1.43,3.81,2.85c0.17,0.31-0.04,0.69-0.39,0.71c-1.19,0.09-2.35,0-3.51-0.26c-0.13-0.03-0.25,0.06-0.27,0.19
			l-0.18,1.27c-0.01,0.09,0.04,0.17,0.12,0.19c1.91,0.58,5.56,1.06,6.41-1.42c0.95-2.77-2.23-3.51-4.05-4.49
			c-0.34-0.18-0.29-0.67,0.07-0.8c0.85-0.28,2.43,0.12,3.7,0.21c0.13,0.01,0.19-0.05,0.17-0.18l-0.13-1.26
			c-0.01-0.1-0.06-0.17-0.15-0.21c-1.46-0.65-2.96-0.73-4.49-0.22C129.1,207.35,128.8,209.05,129.49,210.28 M72.52,206.77
			c0-0.04-0.03-0.07-0.07-0.07l-2.29-0.03c-0.04,0-0.07,0.03-0.07,0.07l-0.11,8.71c0,0.04,0.03,0.07,0.07,0.07l2.29,0.03
			c0.04,0,0.07-0.03,0.07-0.07L72.52,206.77"/>
		<path class="st1" d="M262.11,228.63c-1.46-0.51-8.44-2.6-8.42-4.36c0.01-1.5,0.68-2.56,2-3.19c2.3-1.09,4.37,0.27,6.52,1.58
			c0.35,0.22,0.9,0.3,1.63,0.25c0.08-0.01,0.16-0.04,0.22-0.09c0.8-0.75,2.04-2.59,0.87-3.56c-3.85-3.17-9.2-3.75-13.09-0.47
			c-2.01,1.7-2.66,4.15-2.37,6.71c0.52,4.68,6.34,5.67,9.72,6.92c0.73,0.27,1.87,0.8,2.37,1.35c1.55,1.72-0.48,3.88-2.19,4.41
			c-2.61,0.81-5.31-1.13-7.17-2.72c-1-0.85-2.86,1.05-3.04,2.02c-0.35,1.8,3.95,4.02,5.27,4.43c4.84,1.5,12.33-0.51,12.2-6.81
			C266.54,232.43,264.56,229.5,262.11,228.63 M119.49,241.86c4.26,1.17,4.31-1.22,5.41-4.16c0.03-0.08,0.09-0.13,0.19-0.13
			c2.54-0.06,5.08-0.06,7.62-0.01c0.53,0.01,1.07-0.15,1.43,0.38c0.68,1.01,1.38,3.03,2.29,3.71c1.09,0.81,3.65,0.71,3.3-1.24
			c-0.12-0.7-0.4-1.58-0.85-2.67c-2.7-6.58-4.96-13.37-7.85-19.86c-0.14-0.32-0.6-0.84-0.88-0.91c-2.37-0.64-3.1,1.3-3.69,3.05
			c-2.15,6.32-4.36,12.63-6.61,18.92c-0.27,0.76-0.48,1.59-0.63,2.49C119.19,241.63,119.31,241.81,119.49,241.86 M57.34,239.51
			c0,2.97,4.2,3.24,4.29,1.56c0.16-2.97,0.17-5.93,0.01-8.86c-0.01-0.17,0.13-0.32,0.3-0.32c2.44-0.04,5.95-0.15,7.9-0.77
			c6.03-1.92,6.38-12,0.03-13.61c-3.04-0.77-6.94-0.59-10.9-0.57c-0.52,0-0.96,0.08-1.29,0.25c-0.09,0.04-0.16,0.12-0.18,0.22
			c-0.12,0.4-0.19,0.92-0.21,1.55c-0.08,2.28-0.09,4.27-0.04,5.95c0.04,1.4-0.07,2.89-0.01,4.35
			C57.36,232.67,57.34,236.08,57.34,239.51 M154.02,216.94c-1.96-0.01-2.37,4.26,0.34,4.44c1.3,0.09,2.57,0.13,3.82,0.14
			c0.14,0,0.26,0.12,0.26,0.26c-0.12,6.03-0.12,12.08,0,18.16c0.02,0.84-0.01,1.62,0.67,1.92c0.91,0.41,3.48,0.58,3.64-1.16
			c0.07-0.71,0.11-1.54,0.12-2.48c0.08-5.44,0.01-10.89-0.21-16.35c-0.01-0.27,0.22-0.48,0.48-0.46c1.22,0.1,3.19,0.2,4.1,0.01
			c1.7-0.35,2.35-3.09,0.86-4.04c-0.37-0.24-0.98-0.35-1.85-0.36C162.18,216.98,158.1,216.96,154.02,216.94 M184.46,241.12
			c1.41,0.65,2.65,0.61,4.14,0.74c3.4,0.3,6.76,0.31,10.09,0.04c0.28-0.02,0.51-0.23,0.57-0.51c0.22-1.17,0.02-2.25-0.61-3.26
			c-0.05-0.07-0.11-0.13-0.19-0.17c-0.32-0.15-0.54-0.23-0.66-0.23c-2.93-0.07-6.12-0.08-9.55-0.02c-0.08,0-0.14-0.06-0.14-0.14
			l0.04-5.56c0-0.13,0.07-0.19,0.2-0.18c2.55,0.15,5.08,0.11,7.62-0.12c1.7-0.15,1.29-2.52,1-3.6c-0.04-0.13-0.15-0.22-0.28-0.22
			l-8.32-0.35c-0.1-0.01-0.15-0.06-0.14-0.16l0.24-5.43c0.01-0.21,0.18-0.37,0.38-0.38c3.14-0.05,6.32-0.06,9.54-0.04
			c1.67,0.02,2.35-4.43,0.29-4.55c-3.57-0.21-7.15,0.33-10.95,0.01c-1.03-0.09-2.02-0.07-3.01-0.07c-0.22,0-0.4,0.18-0.41,0.4
			c-0.25,7.76-0.31,15.51-0.21,23.27C184.1,240.82,184.24,241.03,184.46,241.12 M219.95,227.67c0.14-0.33,0.29-0.34,0.47-0.03
			c2.31,4.03,4.74,7.98,7.31,11.83c1.11,1.67,2.46,2.93,4.6,2.52c0.09-0.02,0.17-0.08,0.19-0.17c0.24-0.78,0.39-1.82,0.43-3.11
			c0.22-6.52,0.35-13.03,0.38-19.55c0-0.58-0.06-1.11-0.2-1.6c-0.07-0.25-0.28-0.42-0.53-0.45c-0.79-0.09-3.32-0.31-3.34,0.97
			c-0.12,5.56-0.18,9.79-0.19,12.7c0,0.38-0.02,0.66-0.06,0.85c-0.08,0.39-0.23,0.42-0.46,0.09c-3.06-4.58-5.83-9.21-8.74-13.74
			c-0.88-1.36-2.55-1.1-3.93-1.05c-0.25,0.01-0.38,0.14-0.37,0.39c0.01,6.23,0.07,12.45-0.05,18.65c-0.03,1.42,0.03,2.83,0.16,4.25
			c0.12,1.25,0.77,1.89,1.99,1.93c2.32,0.08,2.28-1.11,2.28-2.96c-0.01-3.35,0.02-6.7,0.07-10.04
			C219.97,228.75,219.81,228.01,219.95,227.67 M283.43,239.36c-0.03,2.71,2.96,2.51,4.81,2.57c3.15,0.11,6.81,0.47,9.91-0.03
			c0.31-0.05,0.55-0.29,0.6-0.6c0.17-1.05-0.11-2.03-0.83-2.94c-0.67-0.85-2.47-0.73-3.45-0.71c-2.02,0.04-4.21,0.08-6.59,0.12
			c-0.26,0-0.39-0.12-0.38-0.38l0.09-5.23c0-0.17,0.15-0.31,0.32-0.31c1.86,0.04,3.75,0.06,5.69,0.07c2.98,0,3.18-1.06,2.91-3.62
			c-0.03-0.25-0.17-0.38-0.42-0.4l-8.13-0.38c-0.11-0.01-0.19-0.09-0.2-0.19c-0.11-1.73-0.07-3.46,0.11-5.19
			c0.03-0.27,0.25-0.48,0.52-0.5c2.47-0.11,4.94-0.17,7.42-0.18c0.95-0.01,3.04,0.16,3.3-1.1c0.19-0.89,0.23-1.75,0.12-2.57
			c-0.04-0.31-0.28-0.56-0.59-0.61c-1.41-0.24-2.86-0.31-4.35-0.2c-2.9,0.21-5.8,0.21-8.7,0c-0.59-0.05-1.16-0.06-1.71-0.05
			c-0.15,0-0.27,0.12-0.27,0.28C283.57,224.55,283.51,231.95,283.43,239.36 M104.92,237.63c-3.44-0.15-6.95-0.09-10.45,0.03
			c-0.3,0.01-0.54-0.24-0.53-0.53c0.29-6.2,0.42-12.48,0.4-18.84c-0.01-1.68-3.04-1.27-3.96-1c-0.17,0.05-0.3,0.2-0.33,0.38
			c-0.09,0.54-0.14,1.06-0.15,1.55c-0.18,7.55-0.21,15.09-0.12,22.6c0,0.1,0.08,0.18,0.18,0.18c4.38,0.06,8.73,0.04,13.04-0.06
			c2.91-0.07,2.55-2.06,2.11-4.14C105.1,237.7,105.02,237.63,104.92,237.63"/>
		<path class="st2" d="M139.14,178.04l-25.92-27.91c-0.15-0.16-0.41-0.17-0.56,0l-42.04,45.19c-0.31,0.33-0.27,0.62,0.12,0.86
			c0.09,0.06,0.27,0.05,0.51-0.02c0.19-0.05,0.36-0.08,0.5-0.08c16.74,0,33.42,0,50.05,0c0.35,0,0.69-0.15,0.93-0.4l16.4-17.56
			C139.17,178.09,139.17,178.07,139.14,178.04 M216.88,178.02l16.36,17.59c0.07,0.07,0.15,0.12,0.25,0.15
			c0.99,0.22,1.99,0.33,3.01,0.33c15.34,0,30.67,0,46.01-0.01c1.07,0,2.11-0.09,3.14-0.19c0.13-0.01,0.19-0.17,0.1-0.27
			l-42.37-45.47c-0.11-0.12-0.3-0.12-0.42-0.01c-0.5,0.5-0.99,1-1.46,1.5c-7.82,8.39-15.65,16.78-23.48,25.17
			c-0.36,0.39-0.74,0.74-1.14,1.07C216.85,177.91,216.84,177.98,216.88,178.02"/>
		<path class="st5" d="M117.42,176.14c-0.8-0.69-1.57-1.25-2.3-1.7c-0.22-0.13-0.35-0.2-0.41-0.2c-0.4-0.01-0.59,0.16-0.6,0.52
			l-0.02,4.09c0,0.12,0.06,0.18,0.18,0.18l4.06-0.03c0.28,0,0.46-0.29,0.34-0.54l-0.92-1.89
			C117.67,176.42,117.56,176.27,117.42,176.14 M107.37,179.04l4.34-0.12c0.11,0,0.21-0.09,0.21-0.2c0.06-0.79,0.07-1.95,0.04-3.49
			c-0.01-0.55-0.19-0.86-0.81-0.69c-1.97,0.53-3.26,1.81-3.87,3.82c-0.06,0.21-0.05,0.43,0.04,0.67
			C107.33,179.03,107.35,179.04,107.37,179.04 M111.91,181.41c0-0.13-0.11-0.23-0.24-0.23l-4.45,0.02c-0.13,0-0.24,0.11-0.23,0.24
			l0.02,4.39c0,0.13,0.11,0.23,0.24,0.23l4.45-0.02c0.13,0,0.24-0.11,0.23-0.24L111.91,181.41 M118.89,181.21
			c0-0.04-0.03-0.07-0.07-0.07l-4.75,0.07c-0.04,0-0.07,0.03-0.07,0.07l0.07,4.74c0,0.04,0.03,0.07,0.07,0.07l4.75-0.07
			c0.04,0,0.07-0.03,0.07-0.07L118.89,181.21 M237.89,179.06l3.86-0.17c0.11,0,0.17-0.06,0.18-0.18l0.12-3.85
			c0.01-0.15-0.11-0.28-0.27-0.28c-2.23-0.05-3.99,2.07-4.19,4.15C237.57,178.91,237.71,179.06,237.89,179.06 M244.27,178.89
			c1.46,0.19,2.93,0.19,4.4,0.01c0.22-0.03,0.34-0.26,0.25-0.45c-0.75-1.66-2.57-4.41-4.62-3.69c-0.08,0.03-0.11,0.08-0.11,0.16
			l0.02,3.36c0,0.05-0.02,0.1-0.05,0.14c-0.06,0.08-0.09,0.17-0.09,0.26C244.08,178.78,244.16,178.87,244.27,178.89 M242.05,181.31
			c0-0.04-0.03-0.07-0.07-0.07l-4.66-0.07c-0.04,0-0.07,0.03-0.07,0.07l-0.07,4.69c0,0.04,0.03,0.07,0.07,0.07l4.66,0.07
			c0.04,0,0.07-0.03,0.07-0.07L242.05,181.31 M249.06,181.36c0-0.07-0.06-0.13-0.13-0.13l-4.61-0.06c-0.07,0-0.13,0.06-0.13,0.13
			l-0.06,4.62c0,0.07,0.06,0.13,0.13,0.13l4.61,0.06c0.07,0,0.13-0.06,0.13-0.13L249.06,181.36"/>
		<path class="st2" d="M111.22,211.92c0.05,1.55,1.9,2.44,2.9,1.3c0.9-1.02,0.96-3.86-0.61-4.42
			C111.31,208.02,111.18,210.63,111.22,211.92 M91.87,210.04l2.14,0.12c0.19,0.01,0.36-0.14,0.37-0.33l0.01-0.21
			c0.04-0.64-0.5-1.18-1.19-1.22l-0.35-0.02c-0.69-0.04-1.27,0.45-1.31,1.08l-0.01,0.21C91.53,209.86,91.68,210.03,91.87,210.04
			 M121.81,212.67l0.37,0.97c0.09,0.24,0.37,0.37,0.61,0.27l0.36-0.14c1.02-0.39,1.7-1.12,1.5-1.62l-0.01-0.02
			c-0.19-0.51-1.18-0.6-2.21-0.21l-0.36,0.14C121.84,212.15,121.72,212.42,121.81,212.67"/>
		<path class="st1" d="M126.98,233.07l5.13,0.18c0.26,0.01,0.36-0.11,0.29-0.37c-0.65-2.61-1.7-5.04-3.15-7.3
			c-0.06-0.1-0.22-0.09-0.26,0.03l-2.44,6.83C126.44,232.74,126.66,233.06,126.98,233.07 M61.41,221.75l0.17,5.24
			c0.01,0.36,0.32,0.65,0.68,0.64l3.3-0.1c2.62-0.08,4.7-1.43,4.65-3l-0.03-0.85c-0.05-1.58-2.21-2.79-4.83-2.71l-3.3,0.11
			C61.68,221.09,61.4,221.39,61.41,221.75"/>
		<path class="st6" d="M231.98,113.53c-7.53-5.99-14.92-10.21-23.57-13.96c-8.28-3.59-17.7-5.69-26.64-6.74
			c-1.54-0.18-5.15-0.34-10.83-0.47c-1.6-0.04-4.53,0.11-8.8,0.45c-10.4,0.83-20.44,3.62-29.93,7.9c-4,1.81-8.26,3.43-11.7,6.22
			c-0.11,0.09-0.12,0.07-0.05-0.04c0.04-0.06,0.09-0.12,0.16-0.18c1.84-1.59,3.81-3,5.92-4.23c5.52-3.21,11.27-5.94,17.24-8.19
			c5.03-1.89,10-3.11,15.47-4.22c3.36-0.68,6.35-1.13,8.98-1.32c6.44-0.47,13.12-0.65,19.55,0c27.84,2.82,51.66,16.44,69.04,38.17
			c9.77,12.21,16.56,28.09,19.58,43.51c0.08,0.43,0.07,0.83-0.05,1.21c-0.03,0.11-0.17,0.14-0.24,0.06
			c-1.07-1.02-2.09-2.35-2.96-3.27c-2.84-2.98-5.66-5.99-8.46-9.01c-0.4-0.43-1.1-0.77-1.3-1.38c-3.49-10.85-9.66-21.4-16.78-29.9
			C242.33,123.06,237.9,118.24,231.98,113.53L231.98,113.53z"/>
		<path class="st7" d="M91.56,141.53c4.83-8.14,10.94-15.08,17.5-21.06c16.85-15.37,39.06-23.67,61.81-23.62
			c3.95,0.01,8.22,0.5,12.29,0.88c1.3,0.12,3.55,0.49,6.77,1.12c1.43,0.28,3.2,0.8,4.83,1.08c0.01,0,0.01,0.01,0.01,0.01
			c0,0.01,0,0.01-0.01,0.01c-1.51,0.03-3.21-0.42-4.72-0.63c-3.95-0.53-7.98-0.7-11.95-0.92c-1.62-0.09-4.19-0.01-7.7,0.24
			c-18.57,1.36-35.63,8.03-50.13,19.7c-3.97,3.2-7.54,6.68-10.73,10.45c-7.43,8.79-13.78,18.24-17.42,29.12
			c-0.34,1.02-1.65,2.59-2.58,3.59c-3.13,3.34-6.27,6.7-9.44,10.05c-0.07,0.07-0.19,0.04-0.21-0.06c-0.02-0.12-0.02-0.26,0.02-0.42
			C82.12,160.75,86,150.91,91.56,141.53L91.56,141.53z"/>
		<path class="st8" d="M191.03,146.21c-1.98-2.33-3.46-3.78-5.17-5.71c-2.24-2.53-4.76-4.86-6.93-7.36
			c-0.28-0.32-0.6-0.57-0.94-0.73c-0.08-0.04-0.17-0.02-0.23,0.05c-4.77,5.34-9.87,10.34-14.62,15.7c-0.6,0.68-1.29,1.26-2.06,1.72
			c-0.08,0.05-0.16,0.07-0.25,0.06c-2.28-0.12-4.66-0.87-6.91-1.3c-8.95-1.69-17.08-3.6-26.77-5.46c-3.92-0.75-7.83-1.55-11.73-2.39
			c-1.53-0.33-2.64,0.28-3.6,1.42c-2.21,2.64-4.66,5.33-7.34,8.07c-1.83,1.87-3.91,4.45-6.12,6.45c-0.04,0.03-0.09,0.03-0.12,0
			c-0.04-0.03-0.05-0.08-0.02-0.12c1.46-2.55,2.83-5.9,3.83-7.85c6.57-12.79,16.62-23.71,28.49-31.88c1.45-0.99,2.98-1.93,4.61-2.82
			c4.6-2.51,9.37-4.87,14.37-6.47c1.91-0.62,3.82-1.36,5.72-1.81c4.69-1.1,9.94-2.37,14.9-2.66c5.54-0.32,11.26-0.35,16.78,0.34
			c5.75,0.72,11.79,1.73,17.26,3.68c6.18,2.2,12.32,4.84,17.91,8.29c4.84,2.99,9.24,6.66,13.41,10.47c2.24,2.05,4.35,4.23,6.32,6.54
			c0.76,0.89,1.42,1.96,2.09,2.78c2.09,2.55,4.1,5.04,5.82,7.91c2.16,3.59,3.75,6.42,5.09,9.82c0.1,0.25-0.21,0.46-0.41,0.28
			c-1.65-1.51-3.17-3.04-4.57-4.61c-0.1-0.11-0.6-0.76-1.51-1.95c-0.7-0.91-1.59-1.65-2.25-2.49c-0.87-1.1-2.05-2.73-3.24-3.45
			c-0.08-0.05-0.17-0.07-0.26-0.07c-1.06,0.02-2.29,0.18-3.69,0.48c-13.31,2.82-26.75,5.27-40.08,8.12c-1,0.21-2.19,0.61-3.3,0.89
			c-0.09,0.02-0.18,0-0.24-0.05C193.44,148.72,192.05,147.41,191.03,146.21L191.03,146.21z"/>
		<path class="st7" d="M194.89,154.47l19.18,20.37c0.06,0.07,0.17,0.07,0.23,0c6.48-7.03,12.97-14.04,19.49-21.03
			c0.91-0.98,2.31-2.05,2.62-2.71c0.06-0.12,0.11-0.22,0.12-0.23c0.47-0.43,0.73-0.9,1.26-1.26c1.05-0.71,1.19-1.52,1.87-2.34
			c0.71-0.85,1.38-1.74,2.06-2.61c0.48-0.06,0.81,0.01,0.99,0.21c15.76,16.95,31.51,33.89,47.25,50.85c0.2,0.22,0.65,0.33,1.34,0.35
			c1.99,0.04,3.99,0.03,5.99-0.02c0.1,0,0.15,0.05,0.15,0.15l0.09,3c0,0.12-0.09,0.21-0.21,0.21c-21.68,0-43.36,0-65.03,0
			c-1.25,0-1.42-0.34-2.29-1.29c-24.93-26.81-41.29-44.4-49.07-52.75c-0.55-0.59-1.5-1.58-2.85-2.97c-0.07-0.07-0.14-0.07-0.2,0
			c-17.45,18.81-34.82,37.72-52.44,56.36c-0.5,0.53-0.81,0.69-1.57,0.69c-26.84-0.09-43.44,0.03-65.14-0.08
			c-0.11,0-0.16-0.05-0.16-0.16v-2.63c0-0.27,0.14-0.41,0.41-0.41c1.83-0.01,3.63-0.02,5.41-0.02c0.92,0,1.42-0.12,2.07-0.83
			c2.56-2.8,5.44-5.79,7.77-8.3c12.25-13.23,24.51-26.43,36.8-39.61c0.66-0.71,1.31-1.44,1.94-2.18c0.5-0.59,1.39-0.42,2.2-0.23
			c-0.17,0.48-0.01,0.99,0.48,1.53c8.56,9.46,17.25,18.87,26.11,28.05c0.2,0.21,0.53,0.2,0.72-0.01c5.91-6.47,11.8-12.84,17.67-19.1
			c0.38-0.41,0.67-0.78,0.87-1.12c0.43-0.31,1.01-0.86,1.73-1.62c5-5.34,10-10.7,15-16.07c0.17-0.18,0.45-0.18,0.62,0L194.89,154.47
			 M139.14,178.04l-25.92-27.91c-0.15-0.16-0.41-0.17-0.56,0l-42.04,45.19c-0.31,0.33-0.27,0.62,0.12,0.86
			c0.09,0.06,0.27,0.05,0.51-0.02c0.19-0.05,0.36-0.08,0.5-0.08c16.74,0,33.42,0,50.05,0c0.35,0,0.69-0.15,0.93-0.4l16.4-17.56
			C139.17,178.09,139.17,178.07,139.14,178.04 M216.88,178.02l16.36,17.59c0.07,0.07,0.15,0.12,0.25,0.15
			c0.99,0.22,1.99,0.33,3.01,0.33c15.34,0,30.67,0,46.01-0.01c1.07,0,2.11-0.09,3.14-0.19c0.13-0.01,0.19-0.17,0.1-0.27
			l-42.37-45.47c-0.11-0.12-0.3-0.12-0.42-0.01c-0.5,0.5-0.99,1-1.46,1.5c-7.82,8.39-15.65,16.78-23.48,25.17
			c-0.36,0.39-0.74,0.74-1.14,1.07C216.85,177.91,216.84,177.98,216.88,178.02L216.88,178.02z"/>
		<path class="st6" d="M241.73,144.66c-0.68,0.87-1.34,1.76-2.06,2.61c-0.68,0.82-0.82,1.63-1.87,2.34
			c-0.53,0.36-0.79,0.83-1.26,1.26c-0.01,0.01-0.06,0.11-0.12,0.23c-0.32,0.67-1.71,1.73-2.62,2.71c-6.52,6.99-13.01,14-19.49,21.03
			c-0.06,0.07-0.17,0.07-0.23,0l-19.18-20.37c0.57-0.26,1.1-0.45,1.6-0.55c14.59-3.18,29.28-5.82,43.86-9.11
			C240.8,144.7,241.27,144.7,241.73,144.66L241.73,144.66z"/>
		<path class="st6" d="M115.16,144.98c13.92,2.63,27.8,5.56,41.7,8.32c1,0.2,2.38,0.54,4.16,1.03c-0.2,0.34-0.5,0.72-0.87,1.12
			c-5.87,6.27-11.76,12.64-17.67,19.1c-0.19,0.21-0.52,0.21-0.72,0.01c-8.86-9.18-17.55-18.59-26.11-28.05
			C115.15,145.98,114.99,145.46,115.16,144.98L115.16,144.98z"/>
		<path class="st9" d="M117.42,176.14c0.14,0.12,0.26,0.27,0.34,0.44l0.92,1.89c0.12,0.25-0.06,0.54-0.34,0.54l-4.06,0.03
			c-0.12,0-0.18-0.06-0.18-0.18l0.02-4.09c0-0.36,0.2-0.54,0.6-0.52c0.05,0,0.19,0.07,0.41,0.2
			C115.85,174.89,116.62,175.46,117.42,176.14L117.42,176.14z"/>
		<path class="st9" d="M107.37,179.04c-0.02,0-0.04-0.01-0.05-0.03c-0.09-0.24-0.1-0.46-0.04-0.67c0.61-2.01,1.9-3.29,3.87-3.82
			c0.61-0.17,0.79,0.14,0.81,0.69c0.03,1.54,0.02,2.71-0.04,3.49c-0.01,0.11-0.1,0.2-0.21,0.2L107.37,179.04L107.37,179.04z"/>
		<path class="st9" d="M237.89,179.06c-0.18,0.01-0.32-0.14-0.3-0.32c0.2-2.08,1.96-4.2,4.19-4.15c0.15,0,0.27,0.13,0.27,0.28
			l-0.12,3.85c0,0.11-0.06,0.17-0.18,0.18L237.89,179.06L237.89,179.06z"/>
		<path class="st9" d="M244.07,178.67c0-0.09,0.03-0.18,0.09-0.26c0.03-0.04,0.05-0.09,0.05-0.14l-0.02-3.36
			c0-0.08,0.04-0.14,0.11-0.16c2.05-0.72,3.88,2.03,4.62,3.69c0.09,0.2-0.04,0.43-0.25,0.45c-1.47,0.19-2.94,0.19-4.4-0.01
			C244.16,178.87,244.08,178.78,244.07,178.67L244.07,178.67z"/>
		<path class="st9" d="M171.6,179.43c1.21-0.86,2.52-1.44,3.93-1.73c0.31-0.06,0.47,0.06,0.47,0.38l0.02,8.11
			c0,0.09-0.05,0.14-0.14,0.14h-8.26c-0.11,0-0.17-0.05-0.18-0.17C167.27,183.85,169.83,180.69,171.6,179.43L171.6,179.43z"/>
		<path class="st9" d="M187.01,186.38c-2.26-0.09-4.53-0.04-6.8-0.05c-0.1,0-0.15-0.05-0.15-0.15l-0.07-7.91
			c0-0.29,0.14-0.46,0.42-0.51c0.49-0.09,1.05,0.17,1.45,0.29c3.49,1.06,5.38,3.82,6.78,6.92
			C189.21,186.27,187.87,186.41,187.01,186.38L187.01,186.38z"/>
		<path class="st9" d="M111.93,185.8c0,0.13-0.11,0.24-0.23,0.24l-4.45,0.02c-0.13,0-0.24-0.11-0.24-0.23l-0.02-4.39
			c0-0.13,0.11-0.24,0.23-0.24l4.45-0.02c0.13,0,0.24,0.11,0.24,0.23L111.93,185.8L111.93,185.8z"/>
		<path class="st9" d="M118.95,185.95c0,0.04-0.03,0.07-0.07,0.07l-4.75,0.07c-0.04,0-0.07-0.03-0.07-0.07l-0.07-4.74
			c0-0.04,0.03-0.07,0.07-0.07l4.75-0.07c0.04,0,0.07,0.03,0.07,0.07L118.95,185.95L118.95,185.95z"/>
		<path class="st9" d="M241.98,186c0,0.04-0.03,0.07-0.07,0.07l-4.66-0.07c-0.04,0-0.07-0.03-0.07-0.07l0.07-4.69
			c0-0.04,0.03-0.07,0.07-0.07l4.66,0.07c0.04,0,0.07,0.03,0.07,0.07L241.98,186L241.98,186z"/>
		<path class="st9" d="M249,185.98c0,0.07-0.06,0.13-0.13,0.13l-4.61-0.06c-0.07,0-0.13-0.06-0.13-0.13l0.06-4.62
			c0-0.07,0.06-0.13,0.13-0.13l4.61,0.06c0.07,0,0.13,0.06,0.13,0.13L249,185.98L249,185.98z"/>
		<path class="st9" d="M189.06,199.25c0,0.06-0.05,0.11-0.11,0.11l-8.78-0.02c-0.06,0-0.11-0.05-0.11-0.11l0.02-8.72
			c0-0.06,0.05-0.11,0.11-0.11l8.78,0.02c0.06,0,0.11,0.05,0.11,0.11L189.06,199.25L189.06,199.25z"/>
		<path class="st9" d="M176.02,199.06c0,0.17-0.14,0.31-0.31,0.31l-8.38,0.03c-0.17,0-0.31-0.14-0.31-0.31l-0.03-8.37
			c0-0.17,0.14-0.31,0.31-0.31l8.38-0.03c0.17,0,0.31,0.14,0.31,0.31L176.02,199.06L176.02,199.06z"/>
		<path class="st7" d="M114.23,207.17c0.27,0.13,0.39,0.05,0.36-0.25c-0.13-1.1-0.11-2.21,0.05-3.31c0.03-0.19,0.19-0.34,0.38-0.34
			l1.72-0.04c0.17,0,0.3,0.13,0.3,0.29c0.06,3.62,0.08,7.24,0.04,10.88c0,0.42-0.03,0.77-0.08,1.05c-0.02,0.12-0.09,0.18-0.21,0.18
			l-1.6,0.03c-0.12,0-0.19-0.05-0.21-0.17l-0.16-0.83c-0.03-0.16-0.22-0.21-0.34-0.1c-0.47,0.47-0.91,0.93-1.6,1.05
			c-4.83,0.88-5.16-6.72-2.36-8.7C111.51,206.22,113.24,206.68,114.23,207.17 M111.22,211.92c0.05,1.55,1.9,2.44,2.9,1.3
			c0.9-1.02,0.96-3.86-0.61-4.42C111.31,208.02,111.18,210.63,111.22,211.92L111.22,211.92z"/>
		<path class="st7" d="M72.45,204.89c-0.22,0.61-0.92,0.92-1.58,0.68c-0.65-0.23-1-0.92-0.78-1.53c0.22-0.61,0.92-0.92,1.58-0.68
			C72.32,203.6,72.67,204.28,72.45,204.89L72.45,204.89z"/>
		<path class="st7" d="M86.64,204.75c0,0.41-0.33,0.74-0.74,0.74l-0.86,0c-0.41,0-0.74-0.33-0.74-0.74l0-0.65
			c0-0.41,0.33-0.74,0.74-0.74l0.86,0c0.41,0,0.74,0.33,0.74,0.74L86.64,204.75L86.64,204.75z"/>
		<path class="st7" d="M63.9,212.75c0.19-2.69,1.49-5.74,2.34-8.28c0.08-0.22,0.27-0.38,0.51-0.41l1.5-0.17
			c0.1-0.01,0.19,0.05,0.23,0.14c0.1,0.26,0.09,0.57-0.02,0.92c-1.42,4.37-2.58,7.83-3.5,10.4c-0.03,0.09-0.09,0.13-0.18,0.14
			l-1.95,0.16c-0.38,0.03-0.63-0.14-0.75-0.5l-3.63-10.67c-0.09-0.27,0.11-0.55,0.39-0.55h1.3c0.35,0,0.65,0.22,0.76,0.55
			c0.93,2.78,1.66,5.62,2.79,8.31C63.73,212.89,63.89,212.86,63.9,212.75L63.9,212.75z"/>
		<path class="st7" d="M90.57,214.93c-1.55-1.3-2.06-3.04-1.56-5.21c0.21-0.9,0.59-1.63,1.14-2.18c1.91-1.91,5.77-1.12,6.51,1.6
			c0.21,0.78,0.32,1.58,0.31,2.4c0,0.12-0.06,0.18-0.18,0.18h-5.22c-0.14,0-0.24,0.12-0.22,0.25c0.37,2.69,3.14,1.86,4.98,1.69
			c0.11-0.01,0.17,0.04,0.18,0.15c0.04,0.38,0.12,1.48-0.45,1.6C94.63,215.69,91.75,215.93,90.57,214.93 M91.87,210.04l2.14,0.12
			c0.19,0.01,0.36-0.14,0.37-0.33l0.01-0.21c0.04-0.64-0.5-1.18-1.19-1.22l-0.35-0.02c-0.69-0.04-1.27,0.45-1.31,1.08l-0.01,0.21
			C91.53,209.86,91.68,210.03,91.87,210.04L91.87,210.04z"/>
		<path class="st7" d="M125.08,214.67c-0.03-0.14-0.21-0.2-0.31-0.09c-1.92,1.85-5.54,1.37-5.5-1.86c0.04-2.53,2.95-2.73,4.92-2.53
			c0.08,0.01,0.16-0.05,0.18-0.13c0.62-2.41-2.35-1.4-3.54-1.3c-0.23,0.02-0.44-0.14-0.5-0.36c-0.08-0.35-0.32-1.27,0.27-1.38
			c2.39-0.45,6.14-1.46,6.39,2.24c0.14,2.04,0.17,4.08,0.09,6.13c-0.01,0.12-0.07,0.18-0.19,0.18l-1.45,0
			c-0.11,0-0.18-0.05-0.2-0.16L125.08,214.67 M121.81,212.67l0.37,0.97c0.09,0.24,0.37,0.37,0.61,0.27l0.36-0.14
			c1.02-0.39,1.7-1.12,1.5-1.62l-0.01-0.02c-0.19-0.51-1.18-0.6-2.21-0.21l-0.36,0.14C121.84,212.15,121.72,212.42,121.81,212.67
			L121.81,212.67z"/>
		<path class="st7" d="M78.33,212.86c0.02,0.05,0.09,0.05,0.11-0.01c0.66-1.97,1.31-3.93,1.96-5.9c0.19-0.57,1.86-0.42,2.31-0.32
			c0.1,0.02,0.14,0.08,0.13,0.18c-0.06,0.45-0.15,0.82-0.25,1.11c-0.61,1.73-1.54,4.24-2.77,7.52c-0.03,0.09-0.11,0.14-0.2,0.15
			l-2.17,0.03c-0.11,0-0.18-0.04-0.23-0.14c-0.22-0.44-0.42-0.9-0.58-1.36c-0.83-2.32-1.7-4.62-2.64-6.9
			c-0.05-0.13-0.12-0.24-0.21-0.35c-0.06-0.07-0.04-0.11,0.05-0.12l1.96-0.2c0.25-0.02,0.48,0.12,0.57,0.35
			c0.5,1.32,0.94,2.56,1.34,3.72C77.95,211.29,77.98,212.13,78.33,212.86L78.33,212.86z"/>
		<path class="st7" d="M86.64,215.37c0,0.13-0.1,0.23-0.23,0.23l-1.92,0c-0.12,0-0.23-0.1-0.23-0.23l0.01-8.54
			c0-0.13,0.1-0.23,0.23-0.23l1.92,0c0.12,0,0.23,0.1,0.23,0.23L86.64,215.37L86.64,215.37z"/>
		<path class="st7" d="M101.36,207.63c1.76-1.73,4.83-1.5,5.37,1.32c0.31,1.65,0.35,3.83,0.11,6.54c-0.01,0.08-0.05,0.13-0.14,0.13
			l-1.96,0.03c-0.09,0-0.17-0.08-0.17-0.17c0-1.26,0.32-6.14-0.75-6.81c-0.17-0.11-0.39-0.14-0.67-0.11
			c-1.3,0.14-1.96,0.9-1.98,2.28c-0.01,1.53,0.01,3.05,0.07,4.57c0,0.1-0.05,0.15-0.15,0.15l-2.06,0.03c-0.1,0-0.15-0.05-0.15-0.14
			c-0.06-1.94-0.08-4.4-0.06-7.38c0-0.47,0.04-0.88,0.12-1.23c0.02-0.08,0.07-0.13,0.15-0.15c0.97-0.21,1.65,0.1,2.06,0.92
			C101.21,207.7,101.28,207.71,101.36,207.63L101.36,207.63z"/>
		<path class="st7" d="M129.49,210.28c-0.69-1.23-0.39-2.93,1.11-3.42c1.53-0.5,3.03-0.42,4.49,0.22c0.09,0.04,0.14,0.11,0.15,0.21
			l0.13,1.26c0.01,0.12-0.05,0.18-0.17,0.18c-1.27-0.08-2.85-0.49-3.7-0.21c-0.36,0.12-0.4,0.61-0.07,0.8
			c1.82,0.98,5,1.72,4.05,4.49c-0.85,2.48-4.5,2.01-6.41,1.42c-0.08-0.03-0.14-0.11-0.12-0.19l0.18-1.27
			c0.02-0.13,0.14-0.22,0.27-0.19c1.15,0.26,2.32,0.35,3.51,0.26c0.35-0.02,0.55-0.4,0.39-0.71
			C132.53,211.7,130.33,211.75,129.49,210.28L129.49,210.28z"/>
		<path class="st7" d="M72.41,215.49c0,0.04-0.03,0.07-0.07,0.07l-2.29-0.03c-0.04,0-0.07-0.03-0.07-0.07l0.11-8.71
			c0-0.04,0.03-0.07,0.07-0.07l2.29,0.03c0.04,0,0.07,0.03,0.07,0.07L72.41,215.49L72.41,215.49z"/>
		<path class="st6" d="M253.69,224.27c-0.01,1.76,6.96,3.85,8.42,4.36c2.45,0.86,4.43,3.79,4.48,6.47c0.13,6.31-7.36,8.31-12.2,6.81
			c-1.32-0.41-5.62-2.63-5.27-4.43c0.19-0.97,2.05-2.87,3.04-2.02c1.86,1.59,4.55,3.53,7.17,2.72c1.71-0.53,3.74-2.69,2.19-4.41
			c-0.5-0.55-1.63-1.07-2.37-1.35c-3.37-1.25-9.19-2.24-9.72-6.92c-0.29-2.55,0.36-5.01,2.37-6.71c3.88-3.28,9.24-2.7,13.09,0.47
			c1.18,0.97-0.07,2.81-0.87,3.56c-0.06,0.06-0.14,0.09-0.22,0.09c-0.73,0.05-1.27-0.04-1.63-0.25c-2.15-1.31-4.22-2.67-6.52-1.58
			C254.37,221.71,253.7,222.78,253.69,224.27L253.69,224.27z"/>
		<path class="st6" d="M119.49,241.86c-0.18-0.05-0.3-0.23-0.27-0.41c0.15-0.9,0.35-1.73,0.63-2.49c2.25-6.29,4.45-12.6,6.61-18.92
			c0.59-1.75,1.32-3.69,3.69-3.05c0.28,0.07,0.74,0.59,0.88,0.91c2.9,6.49,5.15,13.27,7.85,19.86c0.45,1.09,0.73,1.97,0.85,2.67
			c0.34,1.95-2.22,2.06-3.3,1.24c-0.91-0.68-1.61-2.69-2.29-3.71c-0.35-0.53-0.9-0.37-1.43-0.38c-2.54-0.05-5.08-0.05-7.62,0.01
			c-0.09,0-0.15,0.05-0.19,0.13C123.8,240.64,123.75,243.03,119.49,241.86 M126.98,233.07l5.13,0.18c0.26,0.01,0.36-0.11,0.29-0.37
			c-0.65-2.61-1.7-5.04-3.15-7.3c-0.06-0.1-0.22-0.09-0.26,0.03l-2.44,6.83C126.44,232.74,126.66,233.06,126.98,233.07
			L126.98,233.07z"/>
		<path class="st6" d="M61.62,241.07c-0.09,1.69-4.29,1.41-4.29-1.56c0-3.43,0.02-6.84-0.1-10.27c-0.05-1.46,0.05-2.95,0.01-4.35
			c-0.05-1.68-0.03-3.66,0.04-5.95c0.02-0.63,0.09-1.14,0.21-1.55c0.03-0.1,0.09-0.18,0.18-0.22c0.33-0.16,0.76-0.24,1.29-0.25
			c3.96-0.02,7.86-0.19,10.9,0.57c6.35,1.61,6,11.69-0.03,13.61c-1.95,0.62-5.46,0.73-7.9,0.77c-0.17,0-0.31,0.15-0.3,0.32
			C61.79,235.14,61.78,238.09,61.62,241.07 M61.41,221.75l0.17,5.24c0.01,0.36,0.32,0.65,0.68,0.64l3.3-0.1
			c2.62-0.08,4.7-1.43,4.65-3l-0.03-0.85c-0.05-1.58-2.21-2.79-4.83-2.71l-3.3,0.11C61.68,221.09,61.4,221.39,61.41,221.75
			L61.41,221.75z"/>
		<path class="st6" d="M154.36,221.38c-2.7-0.18-2.29-4.45-0.34-4.44c4.08,0.02,8.15,0.04,12.23,0.08c0.86,0.01,1.48,0.13,1.85,0.36
			c1.49,0.95,0.84,3.69-0.86,4.04c-0.91,0.19-2.87,0.1-4.1-0.01c-0.27-0.02-0.49,0.19-0.48,0.46c0.22,5.46,0.28,10.91,0.21,16.35
			c-0.01,0.94-0.05,1.77-0.12,2.48c-0.16,1.73-2.74,1.56-3.64,1.16c-0.68-0.31-0.65-1.09-0.67-1.92c-0.12-6.08-0.12-12.13,0-18.16
			c0-0.14-0.11-0.26-0.26-0.26C156.93,221.52,155.66,221.47,154.36,221.38L154.36,221.38z"/>
		<path class="st6" d="M184.46,241.12c-0.21-0.1-0.35-0.31-0.35-0.54c-0.11-7.76-0.04-15.52,0.21-23.27c0.01-0.22,0.19-0.4,0.41-0.4
			c0.99,0,1.98-0.02,3.01,0.07c3.8,0.33,7.37-0.22,10.95-0.01c2.06,0.12,1.39,4.57-0.29,4.55c-3.23-0.03-6.41-0.02-9.54,0.04
			c-0.21,0.01-0.38,0.17-0.38,0.38l-0.24,5.43c-0.01,0.1,0.04,0.15,0.14,0.16l8.32,0.35c0.13,0.01,0.25,0.1,0.28,0.22
			c0.29,1.08,0.7,3.45-1,3.6c-2.54,0.23-5.07,0.27-7.62,0.12c-0.13-0.01-0.2,0.05-0.2,0.18l-0.04,5.56c0,0.08,0.06,0.14,0.14,0.14
			c3.43-0.06,6.61-0.05,9.55,0.02c0.11,0,0.33,0.08,0.66,0.23c0.08,0.04,0.14,0.09,0.19,0.17c0.63,1,0.84,2.09,0.61,3.26
			c-0.05,0.28-0.29,0.49-0.57,0.51c-3.33,0.27-6.69,0.25-10.09-0.04C187.1,241.73,185.87,241.77,184.46,241.12L184.46,241.12z"/>
		<path class="st6" d="M219.95,227.67c-0.14,0.34,0.02,1.08,0.01,1.46c-0.06,3.34-0.08,6.69-0.07,10.04
			c0.01,1.84,0.04,3.04-2.28,2.96c-1.22-0.04-1.87-0.68-1.99-1.93c-0.14-1.42-0.19-2.83-0.16-4.25c0.12-6.2,0.06-12.42,0.05-18.65
			c0-0.25,0.12-0.38,0.37-0.39c1.38-0.05,3.05-0.31,3.93,1.05c2.91,4.52,5.68,9.15,8.74,13.74c0.22,0.33,0.38,0.3,0.46-0.09
			c0.04-0.19,0.06-0.47,0.06-0.85c0.01-2.91,0.07-7.14,0.19-12.7c0.03-1.28,2.55-1.05,3.34-0.97c0.25,0.03,0.46,0.21,0.53,0.45
			c0.13,0.49,0.2,1.02,0.2,1.6c-0.03,6.52-0.15,13.04-0.38,19.55c-0.05,1.3-0.19,2.34-0.43,3.11c-0.03,0.09-0.1,0.15-0.19,0.17
			c-2.14,0.41-3.49-0.85-4.6-2.52c-2.57-3.85-5-7.79-7.31-11.83C220.24,227.33,220.09,227.34,219.95,227.67L219.95,227.67z"/>
		<path class="st6" d="M288.24,241.93c-1.85-0.06-4.85,0.14-4.81-2.57c0.09-7.41,0.15-14.8,0.18-22.17c0-0.15,0.12-0.27,0.27-0.28
			c0.55-0.01,1.12,0,1.71,0.05c2.9,0.21,5.8,0.22,8.7,0c1.49-0.11,2.94-0.04,4.35,0.2c0.31,0.05,0.55,0.3,0.59,0.61
			c0.1,0.82,0.06,1.68-0.12,2.57c-0.26,1.26-2.35,1.1-3.3,1.1c-2.48,0.01-4.96,0.08-7.42,0.18c-0.27,0.01-0.5,0.22-0.52,0.5
			c-0.18,1.73-0.21,3.46-0.11,5.19c0.01,0.11,0.09,0.19,0.2,0.19l8.13,0.38c0.25,0.01,0.39,0.14,0.42,0.4
			c0.27,2.56,0.07,3.62-2.91,3.62c-1.93,0-3.83-0.02-5.69-0.07c-0.17-0.01-0.32,0.14-0.32,0.31l-0.09,5.23
			c0,0.26,0.12,0.39,0.38,0.38c2.38-0.04,4.57-0.08,6.59-0.12c0.98-0.02,2.77-0.14,3.45,0.71c0.72,0.9,0.99,1.88,0.83,2.94
			c-0.05,0.31-0.29,0.55-0.6,0.6C295.05,242.4,291.39,242.04,288.24,241.93L288.24,241.93z"/>
		<path class="st6" d="M94.48,237.66c3.5-0.12,7.01-0.18,10.45-0.03c0.09,0.01,0.18,0.07,0.2,0.17c0.44,2.08,0.8,4.07-2.11,4.14
			c-4.31,0.1-8.66,0.12-13.04,0.06c-0.1,0-0.17-0.08-0.18-0.18c-0.1-7.51-0.06-15.05,0.12-22.6c0.01-0.49,0.06-1.01,0.15-1.55
			c0.03-0.18,0.16-0.32,0.33-0.38c0.91-0.27,3.95-0.68,3.96,1c0.02,6.36-0.11,12.64-0.4,18.84
			C93.94,237.42,94.18,237.67,94.48,237.66L94.48,237.66z"/>
	</g>
</g>
</svg>
