<?xml version="1.0" encoding="utf-8"?>
<!-- Generator: Adobe Illustrator 25.0.1, SVG Export Plug-In . SVG Version: 6.00 Build 0)  -->
<svg version="1.1" id="Capa_1" xmlns="http://www.w3.org/2000/svg" xmlns:xlink="http://www.w3.org/1999/xlink" x="0px" y="0px"
	 viewBox="0 0 100 100" style="enable-background:new 0 0 100 100;" xml:space="preserve">
<style type="text/css">
	.st0{fill:#00D954;}
	.st1{fill:#FFFFFF;}
	.st2{fill-rule:evenodd;clip-rule:evenodd;fill:#FFFFFF;}
</style>
<g>
	<g>
		<ellipse transform="matrix(0.1586 -0.9873 0.9873 0.1586 -7.2983 91.4356)" class="st0" cx="50" cy="50" rx="50" ry="50"/>
		<path class="st1" d="M23,78.3l4.2-15.6c-2.4-4.3-3.6-9-3.6-13.9c0-15.8,12.9-28.7,28.7-28.7C68.1,20.1,81,33,81,48.9
			c0,15.8-12.9,28.7-28.7,28.7c-4.8,0-9.4-1.2-13.7-3.5L23,78.3z M39.4,68.3l1,0.6c3.6,2.2,7.7,3.3,11.9,3.3
			c12.8,0,23.3-10.4,23.3-23.3c0-12.8-10.4-23.3-23.3-23.3C39.4,25.6,29,36,29,48.9c0,4.2,1.2,8.4,3.4,12.1l0.6,1l-2.3,8.7
			L39.4,68.3z"/>
		<path class="st2" d="M63,52.9c-1.2-0.7-2.7-1.5-4.1-0.9c-1.1,0.4-1.8,2.1-2.4,3c-0.4,0.4-0.8,0.5-1.3,0.3c-4-1.6-7.1-4.3-9.3-8
			c-0.4-0.6-0.3-1,0.1-1.6c0.7-0.8,1.5-1.7,1.7-2.7c0.2-1.1-0.3-2.3-0.8-3.2c-0.6-1.2-1.2-2.9-2.4-3.6c-1.1-0.6-2.6-0.3-3.6,0.5
			c-1.7,1.4-2.5,3.6-2.5,5.7c0,0.6,0.1,1.2,0.2,1.8c0.3,1.4,1,2.8,1.7,4c0.6,1,1.2,1.9,1.8,2.8c2.1,2.9,4.8,5.4,7.9,7.3
			c1.5,0.9,3.2,1.8,4.9,2.3c1.9,0.6,3.7,1.3,5.7,0.9c2.2-0.4,4.3-1.8,5.2-3.9c0.3-0.6,0.4-1.3,0.2-2C65.9,54.3,64.1,53.5,63,52.9z"
			/>
	</g>
</g>
</svg>
