<?xml version="1.0" encoding="utf-8"?>
<!-- Generator: Adobe Illustrator 25.0.1, SVG Export Plug-In . SVG Version: 6.00 Build 0)  -->
<svg version="1.1" id="Capa_1" xmlns="http://www.w3.org/2000/svg" xmlns:xlink="http://www.w3.org/1999/xlink" x="0px" y="0px"
	 viewBox="0 0 100 100" style="enable-background:new 0 0 100 100;" xml:space="preserve">
<style type="text/css">
	.st0{fill:#FCDC5B;}
	.st1{fill-rule:evenodd;clip-rule:evenodd;fill:#FCDC5B;}
</style>
<g>
	<path class="st0" d="M1,99.1l7-26.3C4.1,65.6,2,57.6,2,49.4C2,22.7,23.7,0.9,50.5,0.9C77.2,0.9,99,22.7,99,49.4
		c0,26.7-21.8,48.5-48.5,48.5c-8,0-16-2-23.1-5.9L1,99.1z M28.7,82.2l1.7,1c6.1,3.6,13,5.6,20.1,5.6c21.7,0,39.3-17.6,39.3-39.3
		c0-21.7-17.6-39.3-39.3-39.3c-21.7,0-39.3,17.6-39.3,39.3c0,7.2,2,14.2,5.8,20.4l1,1.7L14,86.1L28.7,82.2z"/>
	<path class="st1" d="M68.5,56.1c-2-1.2-4.6-2.5-6.9-1.6c-1.8,0.7-3,3.6-4.1,5c-0.6,0.7-1.3,0.9-2.2,0.5c-6.8-2.7-12-7.2-15.7-13.4
		c-0.6-1-0.5-1.7,0.2-2.6c1.1-1.3,2.5-2.8,2.9-4.6c0.3-1.8-0.5-3.9-1.3-5.5c-0.9-2-2-4.9-4-6.1c-1.9-1.1-4.3-0.5-6,0.9
		c-2.9,2.4-4.3,6-4.2,9.7c0,1,0.1,2.1,0.4,3.1c0.6,2.4,1.7,4.7,2.9,6.8c0.9,1.6,2,3.2,3.1,4.7c3.6,4.9,8.1,9.2,13.3,12.4
		c2.6,1.6,5.4,3,8.3,4c3.3,1.1,6.2,2.2,9.7,1.5c3.7-0.7,7.3-3,8.8-6.5c0.4-1.1,0.6-2.2,0.4-3.3C73.5,58.6,70.4,57.3,68.5,56.1z"/>
</g>
</svg>
